<svg version="1.0" xmlns="http://www.w3.org/2000/svg"
 width="196.000000pt" height="196.000000pt" viewBox="0 0 196.000000 196.000000"
 preserveAspectRatio="xMidYMid meet">

<g transform="translate(0.000000,196.000000) scale(0.100000,-0.100000)"
fill="#000000" stroke="none">
<path d="M1021 1936 c-7 -8 -11 -27 -9 -43 2 -22 8 -28 28 -28 20 0 26 6 28
28 3 27 -12 57 -28 57 -4 0 -13 -6 -19 -14z"/>
<path d="M874 1909 c-8 -13 28 -64 46 -64 7 0 18 8 23 17 9 13 7 22 -7 37 -21
23 -51 28 -62 10z"/>
<path d="M1150 1865 c-22 -23 -22 -27 -8 -41 14 -15 18 -14 42 1 29 19 34 50
10 59 -21 8 -17 9 -44 -19z"/>
<path d="M980 1705 c0 -18 6 -26 25 -30 14 -3 36 -7 49 -10 31 -6 92 -63 105
-98 20 -52 14 -96 -18 -127 -16 -16 -40 -32 -53 -35 -69 -17 -167 48 -188 124
-8 32 -7 48 6 80 9 23 20 41 25 41 15 0 10 38 -6 44 -40 15 -85 -52 -85 -126
l0 -43 -80 3 c-267 13 -499 -147 -595 -408 -40 -107 -47 -282 -16 -394 23 -83
47 -136 91 -201 15 -22 37 -67 49 -100 31 -82 61 -119 126 -151 50 -24 63 -26
127 -21 93 8 114 -5 123 -76 4 -29 13 -62 20 -73 21 -32 74 -62 145 -80 82
-21 143 -12 181 25 26 27 34 28 146 34 126 7 226 29 317 70 56 26 68 45 42 66
-10 9 -28 4 -77 -18 -124 -58 -238 -69 -499 -49 -27 2 -35 -1 -38 -16 -5 -22
13 -36 46 -36 30 0 28 -18 -4 -26 -38 -10 -113 3 -164 29 -46 23 -53 35 -65
117 -6 44 -9 47 -96 103 -49 31 -96 57 -105 57 -23 0 -28 -29 -9 -50 24 -26
19 -28 -33 -18 -55 12 -105 61 -126 125 -9 26 -39 86 -66 133 -89 150 -116
285 -87 439 43 226 209 406 417 451 30 7 99 11 153 9 96 -4 98 -4 122 -36 52
-65 148 -100 224 -81 35 9 46 6 122 -32 46 -24 97 -52 113 -63 29 -20 30 -20
98 -3 99 25 179 31 201 14 20 -15 25 -85 12 -172 -8 -51 -14 -56 -33 -26 -14
22 -32 26 -49 9 -9 -9 1 -35 37 -103 64 -118 93 -235 89 -358 -3 -96 5 -117
37 -94 17 13 19 26 18 118 0 105 -19 201 -55 285 -16 38 -16 46 -3 95 8 29 17
89 21 134 12 165 -55 206 -261 159 l-71 -17 -80 46 c-119 68 -112 61 -99 83
72 121 -47 303 -198 303 -23 0 -28 -4 -28 -25z"/>
<path d="M803 1334 c-3 -8 -2 -19 3 -24 18 -16 321 -170 336 -170 18 0 29 22
20 37 -4 6 -52 34 -107 63 -55 29 -124 65 -152 81 -59 32 -91 37 -100 13z"/>
<path d="M1543 1188 c-46 -33 -52 -48 -29 -67 12 -10 25 -5 66 25 31 23 50 43
48 53 -5 27 -41 22 -85 -11z"/>
<path d="M720 1008 c-37 -20 -52 -56 -46 -112 7 -60 74 -200 99 -204 32 -6 31
28 -3 99 -23 47 -34 84 -34 116 -1 44 1 47 30 56 23 7 53 4 115 -12 70 -18 85
-19 97 -7 11 11 11 16 -3 29 -36 36 -208 60 -255 35z"/>
<path d="M791 906 c-17 -20 -8 -32 47 -60 51 -25 72 -24 72 4 0 35 -99 81
-119 56z"/>
<path d="M1563 714 c-8 -20 8 -48 30 -52 18 -4 34 39 22 57 -10 17 -45 13 -52
-5z"/>
<path d="M1266 552 c-10 -30 4 -53 28 -50 31 4 30 62 -1 66 -14 2 -23 -3 -27
-16z"/>
<path d="M1529 551 c-112 -35 -192 -146 -168 -235 23 -82 111 -101 196 -42 27
18 68 43 91 55 96 49 95 168 -1 212 -44 20 -76 22 -118 10z m119 -78 c7 -10
12 -31 10 -47 -2 -25 -12 -34 -55 -55 -28 -14 -59 -34 -70 -43 -44 -41 -105
-40 -118 2 -16 49 34 123 105 155 43 19 109 13 128 -12z"/>
<path d="M1577 454 c-23 -23 7 -69 37 -58 25 10 17 58 -9 62 -12 2 -24 0 -28
-4z"/>
<path d="M1466 392 c-10 -30 4 -53 28 -50 31 4 30 62 -1 66 -14 2 -23 -3 -27
-16z"/>
</g>
</svg>
